<svg xmlns="http://www.w3.org/2000/svg" viewBox="0 0 273.14 209.69"><defs><style>.cls-1,.cls-13,.cls-15,.cls-16,.cls-17,.cls-2,.cls-3,.cls-4,.cls-5,.cls-6,.cls-7,.cls-9{fill:none;}.cls-1,.cls-13,.cls-3,.cls-4,.cls-5,.cls-6,.cls-7,.cls-9{stroke:#a6a8ab;}.cls-1,.cls-13,.cls-15,.cls-16,.cls-17,.cls-2,.cls-4,.cls-5,.cls-6,.cls-7,.cls-9{stroke-linejoin:round;}.cls-1,.cls-11,.cls-15,.cls-16,.cls-17,.cls-2{stroke-width:1.13px;}.cls-2{stroke:#a7a9ac;}.cls-3{stroke-width:1.14px;}.cls-4{stroke-width:0.57px;}.cls-4,.cls-5,.cls-6{stroke-dasharray:0.57 0.57 0.57 0.57;}.cls-5{stroke-width:0.56px;}.cls-6{stroke-width:0.56px;}.cls-15,.cls-16,.cls-17,.cls-7{stroke-linecap:round;}.cls-14,.cls-18,.cls-7{stroke-width:0.71px;}.cls-8{fill:#a7a9ac;}.cls-13,.cls-9{stroke-linecap:square;}.cls-9{stroke-width:1.1px;}.cls-10{fill:#a6a8ab;}.cls-11{fill:#f8f8f8;}.cls-11,.cls-17{stroke:#58595b;}.cls-12{fill:#58595b;}.cls-13{stroke-width:1.11px;}.cls-14{fill:#231f20;}.cls-14,.cls-16{stroke:#231f20;}.cls-15,.cls-18{stroke:#ed174c;}.cls-18{fill:#ed174c;}</style></defs><title>img-graph-mxBlue</title><g id="Layer_2" data-name="Layer 2"><g id="Ebene_1" data-name="Ebene 1"><g id="LINE"><line class="cls-1" x1="43.88" y1="3.36" x2="43.88" y2="179.06"/></g><g id="LINE-2" data-name="LINE"><line class="cls-1" x1="38.89" y1="173.39" x2="270.58" y2="173.39"/></g><g id="LINE-3" data-name="LINE"><line class="cls-2" x1="38.21" y1="3.36" x2="270.58" y2="3.36"/></g><g id="LINE-4" data-name="LINE"><line class="cls-3" x1="270.58" y1="2.79" x2="270.58" y2="179.06"/></g><g id="LINE-5" data-name="LINE"><line class="cls-4" x1="242.25" y1="179.06" x2="242.25" y2="3.36"/></g><g id="LINE-6" data-name="LINE"><line class="cls-4" x1="270.59" y1="31.7" x2="43.88" y2="31.7"/></g><g id="LINE-7" data-name="LINE"><line class="cls-1" x1="43.88" y1="31.7" x2="38.21" y2="31.7"/></g><g id="LINE-8" data-name="LINE"><line class="cls-4" x1="43.88" y1="60.04" x2="270.58" y2="60.04"/></g><g id="LINE-9" data-name="LINE"><line class="cls-1" x1="38.21" y1="60.04" x2="43.88" y2="60.04"/></g><g id="LINE-10" data-name="LINE"><line class="cls-4" x1="270.58" y1="88.38" x2="43.88" y2="88.38"/></g><g id="LINE-11" data-name="LINE"><line class="cls-1" x1="43.88" y1="88.38" x2="38.21" y2="88.38"/></g><g id="LINE-12" data-name="LINE"><line class="cls-5" x1="43.88" y1="116.71" x2="270.58" y2="116.71"/></g><g id="LINE-13" data-name="LINE"><line class="cls-1" x1="38.21" y1="116.71" x2="43.88" y2="116.71"/></g><g id="LINE-14" data-name="LINE"><line class="cls-6" x1="270.58" y1="145.05" x2="43.88" y2="145.05"/></g><g id="LINE-15" data-name="LINE"><line class="cls-1" x1="43.88" y1="145.05" x2="38.89" y2="145.05"/></g><g id="LINE-16" data-name="LINE"><line class="cls-4" x1="72.22" y1="179.06" x2="72.22" y2="3.36"/></g><g id="LINE-17" data-name="LINE"><line class="cls-7" x1="100.55" y1="43.89" x2="100.55" y2="44.2"/></g><g id="LINE-18" data-name="LINE"><line class="cls-1" x1="100.55" y1="3.36" x2="100.55" y2="179.06"/></g><g id="LINE-19" data-name="LINE"><line class="cls-4" x1="128.89" y1="179.06" x2="128.89" y2="3.36"/></g><g id="LINE-20" data-name="LINE"><line class="cls-7" x1="128.89" y1="44.2" x2="128.89" y2="43.89"/></g><g id="LINE-21" data-name="LINE"><line class="cls-7" x1="157.23" y1="43.89" x2="157.23" y2="44.2"/></g><g id="LINE-22" data-name="LINE"><line class="cls-1" x1="157.23" y1="3.36" x2="157.23" y2="179.06"/></g><g id="LINE-23" data-name="LINE"><line class="cls-4" x1="185.57" y1="179.06" x2="185.57" y2="3.36"/></g><g id="LINE-24" data-name="LINE"><line class="cls-1" x1="213.91" y1="3.36" x2="213.91" y2="179.06"/></g><path class="cls-8" d="M25.76,149.58v-1l3-3.66a1.51,1.51,0,0,0,.42-1,1.15,1.15,0,1,0-2.3,0H25.77A2.14,2.14,0,0,1,28,141.68a2.1,2.1,0,0,1,2.27,2.2,2.44,2.44,0,0,1-.74,1.69l-2.45,3h3.19v1Z"/><path class="cls-8" d="M33.86,149.65a2.16,2.16,0,0,1-2.26-2.25v-3.48a2.26,2.26,0,0,1,4.52,0v3.48A2.16,2.16,0,0,1,33.86,149.65ZM35,144a1.15,1.15,0,1,0-2.28,0v3.41a1.15,1.15,0,1,0,2.28,0Z"/><path class="cls-8" d="M43.87,189.68a2.16,2.16,0,0,1-2.26-2.25V184a2.26,2.26,0,0,1,4.52,0v3.48A2.16,2.16,0,0,1,43.87,189.68ZM45,184a1.15,1.15,0,1,0-2.28,0v3.41a1.15,1.15,0,1,0,2.28,0Z"/><path class="cls-8" d="M100.41,189.61V183l-1.53,1.34V183.1l1.53-1.32h1.12v7.83Z"/><path class="cls-8" d="M155,189.61v-1l3-3.66a1.51,1.51,0,0,0,.42-1,1.15,1.15,0,1,0-2.3,0H155a2.14,2.14,0,0,1,2.28-2.21,2.1,2.1,0,0,1,2.27,2.2,2.44,2.44,0,0,1-.74,1.69l-2.45,3h3.19v1Z"/><path class="cls-8" d="M213.84,189.69a2.18,2.18,0,0,1-2.4-2.2h1.12a1.18,1.18,0,0,0,1.28,1.19,1.21,1.21,0,0,0,1.28-1.3,1.17,1.17,0,0,0-1.31-1.29h-.19v-1h.19a1.07,1.07,0,0,0,1.19-1.19,1.17,1.17,0,1,0-2.33-.09h-1.12a2.17,2.17,0,0,1,2.3-2.13,2.14,2.14,0,0,1,2.28,2.19,1.72,1.72,0,0,1-1,1.67,1.84,1.84,0,0,1,1.1,1.85A2.2,2.2,0,0,1,213.84,189.69Z"/><path class="cls-8" d="M272.3,188.43v1.18h-1.09v-1.18H268v-1l2.76-5.61H272l-2.75,5.61h1.95v-1.83h1.09v1.83h.84v1Z"/><path class="cls-8" d="M29.71,118.91v1.18H28.62v-1.18H25.45v-1l2.76-5.61h1.21l-2.75,5.61h1.95V116h1.09v1.83h.84v1Z"/><path class="cls-8" d="M33.86,120.16a2.16,2.16,0,0,1-2.26-2.25v-3.48a2.26,2.26,0,0,1,4.52,0v3.48A2.16,2.16,0,0,1,33.86,120.16ZM35,114.47a1.15,1.15,0,1,0-2.28,0v3.41a1.15,1.15,0,1,0,2.28,0Z"/><path class="cls-8" d="M28.23,92.12a2.2,2.2,0,0,1-2.32-2.34,4.34,4.34,0,0,1,.58-1.92l1.78-3.63h1.2l-1.68,3.37a1.8,1.8,0,0,1,.69-.12,2.1,2.1,0,0,1,2.06,2.27A2.23,2.23,0,0,1,28.23,92.12Zm0-3.72A1.19,1.19,0,0,0,27,89.76a1.2,1.2,0,1,0,1.19-1.35Z"/><path class="cls-8" d="M33.86,92.12a2.16,2.16,0,0,1-2.26-2.25V86.4a2.26,2.26,0,0,1,4.52,0v3.48A2.16,2.16,0,0,1,33.86,92.12ZM35,86.43a1.15,1.15,0,1,0-2.28,0v3.41a1.15,1.15,0,1,0,2.28,0Z"/><path class="cls-8" d="M28,64a2.24,2.24,0,0,1-2.41-2.28,2.07,2.07,0,0,1,1.08-1.84,1.91,1.91,0,0,1-.95-1.68,2.29,2.29,0,0,1,4.57,0,1.91,1.91,0,0,1-.95,1.68,2.07,2.07,0,0,1,1.08,1.84A2.25,2.25,0,0,1,28,64Zm0-3.61a1.3,1.3,0,1,0,1.29,1.31A1.29,1.29,0,0,0,28,60.36ZM28,57a1.14,1.14,0,0,0-1.15,1.2,1.16,1.16,0,1,0,2.32,0A1.15,1.15,0,0,0,28,57Z"/><path class="cls-8" d="M33.86,64a2.16,2.16,0,0,1-2.26-2.25V58.25a2.26,2.26,0,0,1,4.52,0v3.48A2.16,2.16,0,0,1,33.86,64ZM35,58.28a1.15,1.15,0,1,0-2.28,0v3.41a1.15,1.15,0,1,0,2.28,0Z"/><path class="cls-8" d="M23.31,35.07V28.46L21.78,29.8V28.56l1.53-1.32h1.12v7.83Z"/><path class="cls-8" d="M28.21,35.14A2.16,2.16,0,0,1,26,32.89V29.42a2.26,2.26,0,0,1,4.52,0v3.48A2.16,2.16,0,0,1,28.21,35.14Zm1.14-5.69a1.15,1.15,0,1,0-2.28,0v3.41a1.15,1.15,0,1,0,2.28,0Z"/><path class="cls-8" d="M33.86,35.14a2.16,2.16,0,0,1-2.26-2.25V29.42a2.26,2.26,0,0,1,4.52,0v3.48A2.16,2.16,0,0,1,33.86,35.14ZM35,29.45a1.15,1.15,0,1,0-2.28,0v3.41a1.15,1.15,0,1,0,2.28,0Z"/><path class="cls-8" d="M23.31,7.9V1.29L21.78,2.63V1.39L23.31.07h1.12V7.9Z"/><path class="cls-8" d="M26,7.9v-1l3-3.66a1.51,1.51,0,0,0,.42-1,1.15,1.15,0,1,0-2.3,0H26A2.14,2.14,0,0,1,28.27,0a2.1,2.1,0,0,1,2.27,2.2,2.44,2.44,0,0,1-.74,1.69l-2.45,3h3.19v1Z"/><path class="cls-8" d="M33.85,8A2.16,2.16,0,0,1,31.6,5.72V2.24a2.26,2.26,0,0,1,4.52,0V5.72A2.16,2.16,0,0,1,33.85,8ZM35,2.28a1.15,1.15,0,1,0-2.28,0V5.69a1.15,1.15,0,1,0,2.28,0Z"/><line class="cls-9" x1="100.55" y1="204.73" x2="150.43" y2="204.73"/><polygon class="cls-10" points="146.78 209.24 146.03 208.43 150 204.74 146.03 201.04 146.78 200.23 151.62 204.74 146.78 209.24"/><path class="cls-8" d="M158.56,208.65A1.45,1.45,0,0,1,157,207.1v-3.17h-.64v-.86H157v-1.59h1.12v1.59h1.08v.86h-1.08V207a.57.57,0,0,0,.62.65h.46v1Z"/><path class="cls-8" d="M163.73,204.38a1,1,0,0,0-.84-.37,1.15,1.15,0,0,0-1.11,1.25v3.39h-1.12v-5.58h1.1v.61a1.85,1.85,0,0,1,1.49-.67,1.73,1.73,0,0,1,1.33.53Z"/><path class="cls-8" d="M168.38,208.65v-.51a1.83,1.83,0,0,1-1.49.57,2,2,0,0,1-1.5-.51A1.71,1.71,0,0,1,165,207c0-.93.65-1.61,1.94-1.61h1.46V205c0-.71-.34-1-1.22-1a1.35,1.35,0,0,0-1.22.55l-.73-.69a2.25,2.25,0,0,1,2-.81c1.54,0,2.3.66,2.3,1.91v3.73Zm0-2.46h-1.29c-.68,0-1,.29-1,.8s.32.79,1.06.79a1.34,1.34,0,0,0,1-.32,1.08,1.08,0,0,0,.24-.83Z"/><path class="cls-8" d="M173.37,208.65h-.91l-2-5.58h1.19l1.32,3.93,1.31-3.93h1.19Z"/><path class="cls-8" d="M177.11,206.19c0,1,.5,1.56,1.42,1.56a1.67,1.67,0,0,0,1.35-.57l.71.67a2.62,2.62,0,0,1-2.09.87c-1.4,0-2.51-.74-2.51-2.86,0-1.82.93-2.85,2.37-2.85s2.37,1.08,2.37,2.71v.47Zm2.35-1.54a1.22,1.22,0,0,0-2.21,0,1.73,1.73,0,0,0-.14.76h2.51A1.9,1.9,0,0,0,179.46,204.65Z"/><path class="cls-8" d="M183.71,208.65a1.42,1.42,0,0,1-1.53-1.54v-6.29h1.12V207c0,.43.15.65.61.65h.5v1Z"/><path class="cls-8" d="M189.47,209.69a5.1,5.1,0,0,1-.89-1,2.45,2.45,0,0,1-.25-1.28v-5.26a2.56,2.56,0,0,1,.25-1.28,4.84,4.84,0,0,1,.89-1l.77.77a3,3,0,0,0-.62.73,1.93,1.93,0,0,0-.17.89v5.13a1.93,1.93,0,0,0,.17.89,2.93,2.93,0,0,0,.62.73Z"/><path class="cls-8" d="M198.56,208.65v-3.4a1.08,1.08,0,0,0-1.12-1.24,1.1,1.1,0,0,0-1.16,1.19v3.45h-1.12v-3.4A1.08,1.08,0,0,0,194,204a1.11,1.11,0,0,0-1.16,1.24v3.4h-1.12v-5.58h1.1v.56a2,2,0,0,1,1.49-.63,1.78,1.78,0,0,1,1.58.81,2.12,2.12,0,0,1,1.75-.81,2,2,0,0,1,1.41.51,2.07,2.07,0,0,1,.59,1.57v3.56Z"/><path class="cls-8" d="M208.2,208.65v-3.4a1.08,1.08,0,0,0-1.12-1.24,1.1,1.1,0,0,0-1.16,1.19v3.45h-1.12v-3.4a1.08,1.08,0,0,0-1.12-1.24,1.11,1.11,0,0,0-1.16,1.24v3.4h-1.12v-5.58h1.1v.56A2,2,0,0,1,204,203a1.78,1.78,0,0,1,1.58.81,2.12,2.12,0,0,1,1.75-.81,2,2,0,0,1,1.41.51,2.07,2.07,0,0,1,.59,1.57v3.56Z"/><path class="cls-8" d="M212.45,208.64a4.93,4.93,0,0,1-.88,1l-.77-.77a2.86,2.86,0,0,0,.61-.73,1.79,1.79,0,0,0,.17-.89v-5.13a1.79,1.79,0,0,0-.17-.89,2.89,2.89,0,0,0-.61-.73l.77-.77a4.71,4.71,0,0,1,.88,1,2.45,2.45,0,0,1,.26,1.28v5.26A2.45,2.45,0,0,1,212.45,208.64Z"/><rect class="cls-11" x="166.43" y="65.36" width="94.96" height="16.16"/><path class="cls-12" d="M176.17,75.78a3,3,0,0,1-4,0c-.77-.77-.79-1.55-.79-3.19s0-2.42.79-3.19a3,3,0,0,1,4,0c.77.77.79,1.55.79,3.19S176.94,75,176.17,75.78Zm-.86-5.63a1.65,1.65,0,0,0-2.33,0c-.38.42-.46.89-.46,2.44s.08,2,.46,2.43a1.62,1.62,0,0,0,2.33,0c.4-.41.46-.88.46-2.43S175.71,70.56,175.31,70.15Z"/><path class="cls-12" d="M182.31,76.08a1.88,1.88,0,0,1-1.35.5,1.71,1.71,0,0,1-1.46-.64v2.83h-1.12V70.93h1.1v.59a1.73,1.73,0,0,1,1.47-.66,1.91,1.91,0,0,1,1.36.5,3.32,3.32,0,0,1,.63,2.35A3.35,3.35,0,0,1,182.31,76.08Zm-1.65-4.21c-1,0-1.17.86-1.17,1.85s.14,1.86,1.17,1.86,1.15-.87,1.15-1.86S181.67,71.87,180.66,71.87Z"/><path class="cls-12" d="M185.06,74c0,1,.5,1.56,1.42,1.56a1.66,1.66,0,0,0,1.35-.57l.71.67a2.62,2.62,0,0,1-2.09.87c-1.4,0-2.51-.74-2.51-2.86,0-1.81.94-2.85,2.37-2.85s2.37,1.08,2.37,2.71V74Zm2.35-1.54a1.22,1.22,0,0,0-2.21,0,1.72,1.72,0,0,0-.14.76h2.51A1.9,1.9,0,0,0,187.41,72.5Z"/><path class="cls-12" d="M193,72.24a1,1,0,0,0-.84-.37,1.15,1.15,0,0,0-1.11,1.25v3.39h-1.12V70.93H191v.61a1.85,1.85,0,0,1,1.49-.67,1.73,1.73,0,0,1,1.33.53Z"/><path class="cls-12" d="M197.45,76.51V76a1.84,1.84,0,0,1-1.49.57,2,2,0,0,1-1.5-.51,1.71,1.71,0,0,1-.44-1.2c0-.93.65-1.61,1.94-1.61h1.46v-.4c0-.71-.34-1-1.22-1a1.35,1.35,0,0,0-1.22.55l-.73-.69a2.25,2.25,0,0,1,2-.81c1.54,0,2.3.66,2.3,1.91v3.73Zm0-2.46h-1.29c-.68,0-1,.29-1,.8s.32.79,1.06.79a1.34,1.34,0,0,0,1-.32,1.07,1.07,0,0,0,.24-.82Z"/><path class="cls-12" d="M201.71,76.51A1.45,1.45,0,0,1,200.19,75V71.79h-.64v-.86h.64v-1.6h1.12v1.6h1.08v.86h-1.08V74.9a.57.57,0,0,0,.62.65h.46v1Z"/><path class="cls-12" d="M203.56,69.83V68.64h1.19v1.19Zm0,6.68V70.93h1.12v5.58Z"/><path class="cls-12" d="M209.68,76.51v-3.4a1.08,1.08,0,0,0-1.12-1.24,1.11,1.11,0,0,0-1.16,1.24v3.4h-1.12V70.93h1.1v.56a2,2,0,0,1,1.49-.63,1.94,1.94,0,0,1,1.37.51,2,2,0,0,1,.56,1.57v3.56Z"/><path class="cls-12" d="M214.18,78.83a2.58,2.58,0,0,1-2-.74l.72-.71a1.57,1.57,0,0,0,1.21.49,1.26,1.26,0,0,0,1.31-1.42v-.72a1.72,1.72,0,0,1-1.44.64,1.85,1.85,0,0,1-1.33-.49,3,3,0,0,1-.63-2.27,3,3,0,0,1,.63-2.27,1.86,1.86,0,0,1,1.34-.48,1.71,1.71,0,0,1,1.46.66v-.59h1.09v5.54A2.24,2.24,0,0,1,214.18,78.83Zm.13-7c-1,0-1.14.87-1.14,1.75s.13,1.75,1.14,1.75,1.13-.87,1.13-1.75S215.32,71.87,214.31,71.87Z"/><path class="cls-12" d="M224.48,76.08a1.88,1.88,0,0,1-1.35.5,1.71,1.71,0,0,1-1.46-.64v2.83h-1.12V70.93h1.1v.59a1.73,1.73,0,0,1,1.47-.66,1.91,1.91,0,0,1,1.36.5,3.32,3.32,0,0,1,.63,2.35A3.35,3.35,0,0,1,224.48,76.08Zm-1.65-4.21c-1,0-1.17.86-1.17,1.85s.14,1.86,1.17,1.86S224,74.7,224,73.71,223.85,71.87,222.83,71.87Z"/><path class="cls-12" d="M230.14,75.91a2.26,2.26,0,0,1-1.67.66,2.24,2.24,0,0,1-1.66-.66,4,4,0,0,1,0-4.39,2.24,2.24,0,0,1,1.66-.66,2.26,2.26,0,0,1,1.67.66,4,4,0,0,1,0,4.39Zm-.85-3.73a1.13,1.13,0,0,0-.82-.32,1.11,1.11,0,0,0-.81.32,3.23,3.23,0,0,0,0,3.06,1.12,1.12,0,0,0,.81.33,1.14,1.14,0,0,0,.82-.33,3.22,3.22,0,0,0,0-3.06Z"/><path class="cls-12" d="M233.9,76.57a3.06,3.06,0,0,1-2.34-.8l.74-.74a2.16,2.16,0,0,0,1.61.58c.69,0,1.22-.24,1.22-.77s-.21-.61-.75-.66l-.89-.08c-1.06-.1-1.65-.56-1.65-1.54s.94-1.71,2.1-1.71a3,3,0,0,1,2.07.63l-.71.71a2.1,2.1,0,0,0-1.37-.41c-.68,0-1,.29-1,.71s.22.58.77.64l.78.07c1.16.1,1.76.6,1.76,1.58C236.22,76,235.23,76.57,233.9,76.57Z"/><path class="cls-12" d="M237.33,69.83V68.64h1.19v1.19Zm0,6.68V70.93h1.12v5.58Z"/><path class="cls-12" d="M241.71,76.51A1.45,1.45,0,0,1,240.18,75V71.79h-.64v-.86h.64v-1.6h1.12v1.6h1.08v.86H241.3V74.9a.57.57,0,0,0,.62.65h.46v1Z"/><path class="cls-12" d="M243.56,69.83V68.64h1.19v1.19Zm0,6.68V70.93h1.12v5.58Z"/><path class="cls-12" d="M250,75.91a2.26,2.26,0,0,1-1.67.66,2.24,2.24,0,0,1-1.66-.66,4,4,0,0,1,0-4.39,2.24,2.24,0,0,1,1.66-.66,2.26,2.26,0,0,1,1.67.66,4,4,0,0,1,0,4.39Zm-.85-3.73a1.13,1.13,0,0,0-.82-.32,1.11,1.11,0,0,0-.81.32,3.23,3.23,0,0,0,0,3.06,1.12,1.12,0,0,0,.81.33,1.14,1.14,0,0,0,.82-.33,3.23,3.23,0,0,0,0-3.06Z"/><path class="cls-12" d="M255.36,76.51v-3.4a1.08,1.08,0,0,0-1.12-1.24,1.11,1.11,0,0,0-1.16,1.24v3.4H252V70.93h1.1v.56a2,2,0,0,1,1.49-.63,1.94,1.94,0,0,1,1.38.51,2.05,2.05,0,0,1,.56,1.57v3.56Z"/><rect class="cls-11" x="148.53" y="136.97" width="75.12" height="16.16"/><path class="cls-12" d="M157.87,148.14l-1.65-3.3h-1.49v3.3h-1.19v-7.83h3A2.24,2.24,0,0,1,159,142.6a2.06,2.06,0,0,1-1.56,2.08l1.8,3.47Zm-1.37-6.77h-1.76v2.45h1.76a1.23,1.23,0,1,0,0-2.45Z"/><path class="cls-12" d="M160.89,145.68c0,1,.5,1.56,1.42,1.56a1.67,1.67,0,0,0,1.35-.57l.71.67a2.62,2.62,0,0,1-2.09.87c-1.4,0-2.51-.74-2.51-2.86,0-1.81.93-2.85,2.37-2.85s2.37,1.08,2.37,2.71v.47Zm2.35-1.54a1.22,1.22,0,0,0-2.21,0,1.72,1.72,0,0,0-.14.76h2.51A1.9,1.9,0,0,0,163.24,144.14Z"/><path class="cls-12" d="M167.58,148.21a3.06,3.06,0,0,1-2.34-.8l.74-.74a2.16,2.16,0,0,0,1.61.58c.69,0,1.22-.24,1.22-.77s-.21-.61-.75-.66l-.89-.08c-1.06-.1-1.65-.56-1.65-1.54s.94-1.71,2.1-1.71a3,3,0,0,1,2.07.63l-.7.71a2.11,2.11,0,0,0-1.37-.41c-.68,0-1,.29-1,.71s.22.58.77.64l.78.07c1.16.1,1.76.6,1.76,1.58C169.9,147.6,168.91,148.21,167.58,148.21Z"/><path class="cls-12" d="M171.87,145.68c0,1,.5,1.56,1.42,1.56a1.67,1.67,0,0,0,1.35-.57l.71.67a2.62,2.62,0,0,1-2.09.87c-1.4,0-2.51-.74-2.51-2.86,0-1.81.93-2.85,2.37-2.85s2.37,1.08,2.37,2.71v.47Zm2.35-1.54a1.22,1.22,0,0,0-2.21,0,1.72,1.72,0,0,0-.14.76h2.51A1.9,1.9,0,0,0,174.22,144.14Z"/><path class="cls-12" d="M178.41,148.14a1.45,1.45,0,0,1-1.53-1.55v-3.17h-.64v-.86h.64V141H178v1.6h1.08v.86H178v3.11a.57.57,0,0,0,.62.65h.46v1Z"/><path class="cls-12" d="M186.65,147.71a1.88,1.88,0,0,1-1.35.5,1.71,1.71,0,0,1-1.46-.64v2.83h-1.12v-7.83h1.1v.59a1.73,1.73,0,0,1,1.47-.66,1.91,1.91,0,0,1,1.36.5,3.32,3.32,0,0,1,.63,2.35A3.35,3.35,0,0,1,186.65,147.71ZM185,143.5c-1,0-1.17.86-1.17,1.85s.14,1.86,1.17,1.86,1.16-.87,1.16-1.86S186,143.5,185,143.5Z"/><path class="cls-12" d="M192.31,147.55a2.26,2.26,0,0,1-1.67.66,2.24,2.24,0,0,1-1.66-.66,4,4,0,0,1,0-4.39,2.24,2.24,0,0,1,1.66-.66,2.26,2.26,0,0,1,1.67.66,4,4,0,0,1,0,4.39Zm-.85-3.73a1.14,1.14,0,0,0-.83-.32,1.11,1.11,0,0,0-.81.32,3.23,3.23,0,0,0,0,3.06,1.12,1.12,0,0,0,.81.33,1.15,1.15,0,0,0,.83-.33,3.23,3.23,0,0,0,0-3.06Z"/><path class="cls-12" d="M196.07,148.21a3.06,3.06,0,0,1-2.34-.8l.74-.74a2.16,2.16,0,0,0,1.61.58c.69,0,1.22-.24,1.22-.77s-.21-.61-.75-.66l-.89-.08c-1.06-.1-1.65-.56-1.65-1.54s.94-1.71,2.1-1.71a3,3,0,0,1,2.07.63l-.7.71a2.11,2.11,0,0,0-1.37-.41c-.68,0-1,.29-1,.71s.22.58.77.64l.78.07c1.16.1,1.76.6,1.76,1.58C198.39,147.6,197.4,148.21,196.07,148.21Z"/><path class="cls-12" d="M199.5,141.46v-1.19h1.19v1.19Zm0,6.68v-5.58h1.12v5.58Z"/><path class="cls-12" d="M203.88,148.14a1.45,1.45,0,0,1-1.53-1.55v-3.17h-.64v-.86h.64V141h1.12v1.6h1.08v.86h-1.08v3.11a.57.57,0,0,0,.62.65h.46v1Z"/><path class="cls-12" d="M205.72,141.46v-1.19h1.19v1.19Zm0,6.68v-5.58h1.12v5.58Z"/><path class="cls-12" d="M212.17,147.55a2.26,2.26,0,0,1-1.67.66,2.24,2.24,0,0,1-1.66-.66,4,4,0,0,1,0-4.39,2.24,2.24,0,0,1,1.66-.66,2.26,2.26,0,0,1,1.67.66,4,4,0,0,1,0,4.39Zm-.85-3.73a1.14,1.14,0,0,0-.83-.32,1.11,1.11,0,0,0-.81.32,3.22,3.22,0,0,0,0,3.06,1.12,1.12,0,0,0,.81.33,1.15,1.15,0,0,0,.83-.33,3.22,3.22,0,0,0,0-3.06Z"/><path class="cls-12" d="M217.53,148.14v-3.4a1.08,1.08,0,0,0-1.12-1.24,1.11,1.11,0,0,0-1.16,1.24v3.4h-1.12v-5.58h1.1v.56a2,2,0,0,1,1.49-.63,1.94,1.94,0,0,1,1.37.51,2.05,2.05,0,0,1,.56,1.57v3.56Z"/><rect class="cls-11" x="49.45" y="65.36" width="79.37" height="16.16"/><path class="cls-12" d="M57.62,69.76v6.77H56.43V69.76H54.27V68.69h5.5v1.07Z"/><path class="cls-12" d="M62.9,76.52V76a1.84,1.84,0,0,1-1.49.57,2,2,0,0,1-1.5-.51,1.71,1.71,0,0,1-.44-1.2c0-.93.65-1.61,1.94-1.61h1.46v-.4c0-.71-.34-1-1.22-1a1.35,1.35,0,0,0-1.22.55l-.73-.69a2.25,2.25,0,0,1,2-.81c1.54,0,2.3.66,2.3,1.91v3.73Zm0-2.46H61.59c-.68,0-1,.29-1,.8s.32.79,1.06.79a1.34,1.34,0,0,0,1-.32,1.07,1.07,0,0,0,.24-.82Z"/><path class="cls-12" d="M67.71,76.59c-1.25,0-2.49-.77-2.49-2.86s1.23-2.85,2.49-2.85a2.29,2.29,0,0,1,1.84.78l-.77.75a1.3,1.3,0,0,0-1.07-.53,1.26,1.26,0,0,0-1,.49,2.07,2.07,0,0,0-.33,1.35,2.1,2.1,0,0,0,.33,1.36,1.26,1.26,0,0,0,1,.5,1.3,1.3,0,0,0,1.07-.53l.77.74A2.3,2.3,0,0,1,67.71,76.59Z"/><path class="cls-12" d="M72.28,76.52A1.45,1.45,0,0,1,70.75,75V71.8h-.64v-.86h.64v-1.6h1.12v1.6H73v.86H71.87v3.11a.57.57,0,0,0,.62.65H73v1Z"/><path class="cls-12" d="M74.13,69.85V68.66h1.19v1.19Zm0,6.68V70.95h1.12v5.58Z"/><path class="cls-12" d="M78.34,76.52A1.42,1.42,0,0,1,76.81,75V68.69h1.12v6.23c0,.43.15.65.61.65H79v1Z"/><path class="cls-12" d="M80.76,74.06c0,1,.5,1.56,1.42,1.56A1.66,1.66,0,0,0,83.53,75l.71.67a2.62,2.62,0,0,1-2.09.87c-1.4,0-2.51-.74-2.51-2.86,0-1.81.94-2.85,2.37-2.85s2.37,1.08,2.37,2.71v.47Zm2.35-1.54a1.22,1.22,0,0,0-2.21,0,1.73,1.73,0,0,0-.14.76h2.51A1.9,1.9,0,0,0,83.12,72.52Z"/><path class="cls-12" d="M92,76.09a1.88,1.88,0,0,1-1.35.5A1.71,1.71,0,0,1,89.19,76v2.83H88.07V70.95h1.1v.59a1.73,1.73,0,0,1,1.47-.66,1.91,1.91,0,0,1,1.36.5,3.32,3.32,0,0,1,.63,2.35A3.35,3.35,0,0,1,92,76.09Zm-1.65-4.21c-1,0-1.17.86-1.17,1.85s.14,1.86,1.17,1.86,1.15-.87,1.15-1.86S91.37,71.88,90.35,71.88Z"/><path class="cls-12" d="M97.66,75.93a2.26,2.26,0,0,1-1.67.66,2.24,2.24,0,0,1-1.66-.66,4,4,0,0,1,0-4.39A2.24,2.24,0,0,1,96,70.88a2.26,2.26,0,0,1,1.67.66,4,4,0,0,1,0,4.39Zm-.85-3.73a1.14,1.14,0,0,0-.83-.32,1.11,1.11,0,0,0-.81.32,3.22,3.22,0,0,0,0,3.06,1.12,1.12,0,0,0,.81.33,1.15,1.15,0,0,0,.83-.33,3.22,3.22,0,0,0,0-3.06Z"/><path class="cls-12" d="M101.42,76.59a3.06,3.06,0,0,1-2.34-.8l.74-.74a2.16,2.16,0,0,0,1.61.58c.69,0,1.22-.24,1.22-.77s-.21-.61-.75-.66l-.89-.08c-1.06-.1-1.65-.56-1.65-1.54s.94-1.71,2.1-1.71a3,3,0,0,1,2.07.63l-.7.71a2.11,2.11,0,0,0-1.37-.41c-.68,0-1,.29-1,.71s.22.58.77.64l.78.07c1.16.1,1.76.6,1.76,1.58C103.74,76,102.75,76.59,101.42,76.59Z"/><path class="cls-12" d="M104.85,69.85V68.66H106v1.19Zm0,6.68V70.95H106v5.58Z"/><path class="cls-12" d="M109.23,76.52A1.45,1.45,0,0,1,107.7,75V71.8h-.64v-.86h.64v-1.6h1.12v1.6h1.08v.86h-1.08v3.11a.57.57,0,0,0,.62.65h.46v1Z"/><path class="cls-12" d="M111.08,69.85V68.66h1.19v1.19Zm0,6.68V70.95h1.12v5.58Z"/><path class="cls-12" d="M117.52,75.93a2.26,2.26,0,0,1-1.67.66,2.24,2.24,0,0,1-1.66-.66,4,4,0,0,1,0-4.39,2.24,2.24,0,0,1,1.66-.66,2.26,2.26,0,0,1,1.67.66,4,4,0,0,1,0,4.39Zm-.85-3.73a1.14,1.14,0,0,0-.83-.32,1.11,1.11,0,0,0-.81.32,3.23,3.23,0,0,0,0,3.06,1.12,1.12,0,0,0,.81.33,1.15,1.15,0,0,0,.83-.33,3.23,3.23,0,0,0,0-3.06Z"/><path class="cls-12" d="M122.88,76.52v-3.4a1.08,1.08,0,0,0-1.12-1.24,1.11,1.11,0,0,0-1.16,1.24v3.4h-1.12V70.95h1.1v.56a2,2,0,0,1,1.49-.63,1.94,1.94,0,0,1,1.37.51A2,2,0,0,1,124,73v3.56Z"/><line class="cls-13" x1="5.73" y1="139.44" x2="5.73" y2="89.12"/><polygon class="cls-10" points="10.25 92.78 9.44 93.54 5.73 89.54 2.02 93.54 1.21 92.78 5.73 87.92 10.25 92.78"/><path class="cls-8" d="M4.15,82.33H8.87v1.12H4.15v.64H3.29v-.64H2.53A1.45,1.45,0,0,1,1,81.93v-.7h1v.5a.57.57,0,0,0,.65.62h.71V81.22h.86Z"/><path class="cls-8" d="M8.27,76.46a2.26,2.26,0,0,1,.66,1.67,2.24,2.24,0,0,1-.66,1.66,3,3,0,0,1-2.2.66,2.93,2.93,0,0,1-2.19-.66,2.24,2.24,0,0,1-.66-1.66,2.26,2.26,0,0,1,.66-1.67,2.93,2.93,0,0,1,2.19-.66A2.94,2.94,0,0,1,8.27,76.46Zm-3.73.85a1.14,1.14,0,0,0-.32.83,1.11,1.11,0,0,0,.32.81,2.16,2.16,0,0,0,1.53.39,2.16,2.16,0,0,0,1.53-.39,1.12,1.12,0,0,0,.33-.81,1.15,1.15,0,0,0-.33-.83,2.16,2.16,0,0,0-1.53-.39A2.16,2.16,0,0,0,4.54,77.31Z"/><path class="cls-8" d="M4.6,71.21a1,1,0,0,0-.37.84,1.15,1.15,0,0,0,1.25,1.11H8.87v1.12H3.29v-1.1H3.9a1.85,1.85,0,0,1-.67-1.49,1.73,1.73,0,0,1,.53-1.33Z"/><path class="cls-8" d="M8.93,67.58c0,1.25-.77,2.49-2.86,2.49s-2.85-1.23-2.85-2.49A2.29,2.29,0,0,1,4,65.75l.75.77a1.3,1.3,0,0,0-.53,1.07,1.26,1.26,0,0,0,.49,1,2.07,2.07,0,0,0,1.35.33,2.1,2.1,0,0,0,1.36-.33,1.26,1.26,0,0,0,.5-1,1.3,1.3,0,0,0-.53-1.07l.74-.77A2.3,2.3,0,0,1,8.93,67.58Z"/><path class="cls-8" d="M6.4,63.79c1,0,1.56-.5,1.56-1.42A1.66,1.66,0,0,0,7.39,61l.67-.71a2.62,2.62,0,0,1,.87,2.09c0,1.4-.74,2.51-2.86,2.51-1.81,0-2.85-.94-2.85-2.37s1.08-2.37,2.71-2.37H6.4ZM4.86,61.44a1.22,1.22,0,0,0,0,2.21,1.72,1.72,0,0,0,.76.14V61.28A1.9,1.9,0,0,0,4.86,61.44Z"/><path class="cls-8" d="M9.9,54.85a5.07,5.07,0,0,1-1,.89A2.44,2.44,0,0,1,7.58,56H2.32A2.56,2.56,0,0,1,1,55.74a4.84,4.84,0,0,1-1-.89l.77-.77a3,3,0,0,0,.73.62,1.92,1.92,0,0,0,.89.16H7.51a1.92,1.92,0,0,0,.89-.16,2.92,2.92,0,0,0,.73-.62Z"/><path class="cls-8" d="M8.93,50.36c0,1.25-.77,2.49-2.86,2.49s-2.85-1.23-2.85-2.49A2.29,2.29,0,0,1,4,48.52l.75.77a1.3,1.3,0,0,0-.53,1.07,1.26,1.26,0,0,0,.49,1,2.07,2.07,0,0,0,1.35.33,2.1,2.1,0,0,0,1.36-.33,1.26,1.26,0,0,0,.5-1,1.3,1.3,0,0,0-.53-1.07l.74-.77A2.3,2.3,0,0,1,8.93,50.36Z"/><path class="cls-8" d="M8.87,42.28,3.36,45.9H8.87v1.19H1V46l5.5-3.62H1V41.19H8.87Z"/><path class="cls-8" d="M8.86,37.89a4.93,4.93,0,0,1,1,.88l-.77.77a2.87,2.87,0,0,0-.73-.6,1.78,1.78,0,0,0-.89-.16H2.39a1.78,1.78,0,0,0-.89.16,2.89,2.89,0,0,0-.73.6L0,38.77a4.68,4.68,0,0,1,1-.88,2.45,2.45,0,0,1,1.28-.26H7.58A2.44,2.44,0,0,1,8.86,37.89Z"/><circle class="cls-14" cx="134.31" cy="136.12" r="2.13"/><g id="LINE-25" data-name="LINE"><line class="cls-7" x1="44" y1="128.98" x2="44" y2="126.63"/></g><g id="LINE-26" data-name="LINE"><line class="cls-7" x1="270.58" y1="41.05" x2="270.58" y2="76.85"/></g><g id="LINE-27" data-name="LINE"><line class="cls-7" x1="44" y1="175.3" x2="44" y2="128.69"/></g><g id="LINE-28" data-name="LINE"><line class="cls-7" x1="270.58" y1="87.03" x2="270.58" y2="41.2"/></g><g id="ARC"><path class="cls-15" d="M268.14,88.4a2.83,2.83,0,0,0,2.45-2.81"/></g><g id="ARC-2" data-name="ARC"><path class="cls-16" d="M268.14,89.83c2.25-.57,2.47-2.85,2.45-4.24"/></g><g id="LINE-29" data-name="LINE"><line class="cls-15" x1="51.34" y1="118.21" x2="118.32" y2="109"/></g><g id="LINE-30" data-name="LINE"><line class="cls-15" x1="167.51" y1="102.24" x2="268.14" y2="88.4"/></g><g id="LINE-31" data-name="LINE"><line class="cls-16" x1="147.16" y1="106.47" x2="268.14" y2="89.83"/></g><g id="LINE-32" data-name="LINE"><line class="cls-16" x1="75.13" y1="119.51" x2="92.39" y2="136.46"/></g><g id="ARC-3" data-name="ARC"><path class="cls-16" d="M92.39,136.46c5.84,5.91,11,8.6,19.84,8.6"/></g><g id="ARC-4" data-name="ARC"><path class="cls-16" d="M75.13,119.51a8,8,0,0,0-9.88-1.05"/></g><g id="ARC-5" data-name="ARC"><path class="cls-16" d="M65.25,118.46a80.23,80.23,0,0,0-16.74,18.38"/></g><g id="ARC-6" data-name="ARC"><path class="cls-16" d="M48.51,136.83c-2.25,4-4.5,10.56-4.5,15"/></g><g id="ARC-7" data-name="ARC"><path class="cls-15" d="M51.34,118.21A8.5,8.5,0,0,0,44,126.63"/></g><g id="ARC-8" data-name="ARC"><path class="cls-15" d="M147.6,89.51a7.08,7.08,0,0,0-9.89.94"/></g><g id="LINE-33" data-name="LINE"><line class="cls-15" x1="137.71" y1="90.46" x2="125.45" y2="105.06"/></g><g id="ARC-9" data-name="ARC"><path class="cls-15" d="M118.32,109a11.84,11.84,0,0,0,7.13-3.94"/></g><g id="LINE-34" data-name="LINE"><line class="cls-15" x1="147.6" y1="89.51" x2="160.99" y2="100.41"/></g><g id="ARC-10" data-name="ARC"><path class="cls-15" d="M161,100.41c2.64,1.95,4.67,2.27,6.79,1.79"/></g><g id="LINE-35" data-name="LINE"><line class="cls-16" x1="140.07" y1="112.83" x2="134.41" y2="135.53"/></g><g id="ARC-11" data-name="ARC"><path class="cls-16" d="M123.41,145.05c5,0,9.55-4.6,11-9.52"/></g><g id="ARC-12" data-name="ARC"><path class="cls-16" d="M147.16,106.47c-3.55.56-6.14,2.34-7.09,6.36"/></g><g id="LINE-36" data-name="LINE"><line class="cls-16" x1="112.23" y1="145.05" x2="123.41" y2="145.05"/></g><g id="LINE-37" data-name="LINE"><line class="cls-17" x1="148.53" y1="145.06" x2="134.31" y2="136.12"/></g><circle class="cls-18" cx="142.66" cy="88.38" r="2.13"/><g id="LINE-38" data-name="LINE"><line class="cls-17" x1="142.66" y1="88.38" x2="128.82" y2="73.44"/></g><circle class="cls-18" cx="168.94" cy="102.03" r="2.13"/><g id="LINE-39" data-name="LINE"><line class="cls-17" x1="168.94" y1="102.03" x2="185.57" y2="81.51"/></g></g></g></svg>