<svg xmlns="http://www.w3.org/2000/svg" viewBox="0 0 273.14 209.69"><defs><style>.cls-1,.cls-11,.cls-14,.cls-16,.cls-2,.cls-3,.cls-4,.cls-5,.cls-6,.cls-8,.cls-9{fill:none;}.cls-1,.cls-11,.cls-16,.cls-2,.cls-3,.cls-4,.cls-5,.cls-6{stroke:#a7a9ac;}.cls-1,.cls-11,.cls-14,.cls-15,.cls-16,.cls-3,.cls-4,.cls-5,.cls-6,.cls-7,.cls-8,.cls-9{stroke-linejoin:round;}.cls-1,.cls-12,.cls-14,.cls-8,.cls-9{stroke-width:1.13px;}.cls-2{stroke-width:1.14px;}.cls-3{stroke-width:0.57px;}.cls-3,.cls-4,.cls-5{stroke-dasharray:0.57 0.57 0.57 0.57;}.cls-4{stroke-width:0.56px;}.cls-5{stroke-width:0.56px;}.cls-14,.cls-15,.cls-6,.cls-7,.cls-8,.cls-9{stroke-linecap:round;}.cls-15,.cls-6,.cls-7{stroke-width:0.71px;}.cls-7{fill:#ed174c;}.cls-7,.cls-8{stroke:#ed174c;}.cls-12,.cls-9{stroke:#58595b;}.cls-10{fill:#a7a9ac;}.cls-11,.cls-16{stroke-linecap:square;}.cls-11{stroke-width:1.1px;}.cls-12{fill:#f8f8f8;}.cls-13{fill:#58595b;}.cls-14,.cls-15{stroke:#231f20;}.cls-15{fill:#231f20;}.cls-16{stroke-width:1.11px;}</style></defs><title>img-graph-mxBlack</title><g id="Layer_2" data-name="Layer 2"><g id="Ebene_1" data-name="Ebene 1"><g id="LINE"><line class="cls-1" x1="43.88" y1="3.36" x2="43.88" y2="179.06"/></g><g id="LINE-2" data-name="LINE"><line class="cls-1" x1="38.89" y1="173.39" x2="270.58" y2="173.39"/></g><g id="LINE-3" data-name="LINE"><line class="cls-1" x1="38.21" y1="3.36" x2="270.58" y2="3.36"/></g><g id="LINE-4" data-name="LINE"><line class="cls-2" x1="270.58" y1="2.79" x2="270.58" y2="179.06"/></g><g id="LINE-5" data-name="LINE"><line class="cls-3" x1="242.25" y1="179.06" x2="242.25" y2="3.36"/></g><g id="LINE-6" data-name="LINE"><line class="cls-3" x1="270.59" y1="31.7" x2="43.88" y2="31.7"/></g><g id="LINE-7" data-name="LINE"><line class="cls-1" x1="43.88" y1="31.7" x2="38.21" y2="31.7"/></g><g id="LINE-8" data-name="LINE"><line class="cls-3" x1="43.88" y1="60.04" x2="270.58" y2="60.04"/></g><g id="LINE-9" data-name="LINE"><line class="cls-1" x1="38.21" y1="60.04" x2="43.88" y2="60.04"/></g><g id="LINE-10" data-name="LINE"><line class="cls-3" x1="270.58" y1="88.38" x2="43.88" y2="88.38"/></g><g id="LINE-11" data-name="LINE"><line class="cls-1" x1="43.88" y1="88.38" x2="38.21" y2="88.38"/></g><g id="LINE-12" data-name="LINE"><line class="cls-4" x1="43.88" y1="116.71" x2="270.58" y2="116.71"/></g><g id="LINE-13" data-name="LINE"><line class="cls-1" x1="38.21" y1="116.71" x2="43.88" y2="116.71"/></g><g id="LINE-14" data-name="LINE"><line class="cls-5" x1="270.58" y1="145.05" x2="43.88" y2="145.05"/></g><g id="LINE-15" data-name="LINE"><line class="cls-1" x1="43.88" y1="145.05" x2="38.89" y2="145.05"/></g><g id="LINE-16" data-name="LINE"><line class="cls-3" x1="72.22" y1="179.06" x2="72.22" y2="3.36"/></g><g id="LINE-17" data-name="LINE"><line class="cls-6" x1="100.55" y1="43.89" x2="100.55" y2="44.2"/></g><g id="LINE-18" data-name="LINE"><line class="cls-1" x1="100.55" y1="3.36" x2="100.55" y2="179.06"/></g><g id="LINE-19" data-name="LINE"><line class="cls-3" x1="128.89" y1="179.06" x2="128.89" y2="3.36"/></g><g id="LINE-20" data-name="LINE"><line class="cls-6" x1="128.89" y1="44.2" x2="128.89" y2="43.89"/></g><g id="LINE-21" data-name="LINE"><line class="cls-6" x1="157.23" y1="43.89" x2="157.23" y2="44.2"/></g><g id="LINE-22" data-name="LINE"><line class="cls-1" x1="157.23" y1="3.36" x2="157.23" y2="179.06"/></g><g id="LINE-23" data-name="LINE"><line class="cls-3" x1="185.57" y1="179.06" x2="185.57" y2="3.36"/></g><g id="LINE-24" data-name="LINE"><line class="cls-1" x1="213.91" y1="3.36" x2="213.91" y2="179.06"/></g><g id="CIRCLE"><path class="cls-7" d="M159.36,88.38a2.13,2.13,0,1,0-2.13,2.13,2.13,2.13,0,0,0,2.13-2.13Z"/></g><g id="LINE-25" data-name="LINE"><line class="cls-8" x1="49.84" y1="121.94" x2="157.23" y2="88.38"/></g><g id="ARC"><path class="cls-8" d="M49.84,121.94a8.5,8.5,0,0,0-6,8.11"/></g><g id="LINE-26" data-name="LINE"><line class="cls-8" x1="157.23" y1="88.38" x2="264.62" y2="54.82"/></g><g id="ARC-2" data-name="ARC"><path class="cls-8" d="M264.62,54.82a8.2,8.2,0,0,0,6-8.11"/></g><g id="CIRCLE-2" data-name="CIRCLE"><path class="cls-7" d="M159.09,88.38a1.86,1.86,0,1,0-1.86,1.86,1.86,1.86,0,0,0,1.86-1.86Z"/></g><g id="LINE-27" data-name="LINE"><line class="cls-9" x1="129.03" y1="67.99" x2="157.23" y2="88.38"/></g><path class="cls-10" d="M25.76,149.58v-1l3-3.66a1.51,1.51,0,0,0,.42-1,1.15,1.15,0,1,0-2.3,0H25.77A2.14,2.14,0,0,1,28,141.68a2.1,2.1,0,0,1,2.27,2.2,2.44,2.44,0,0,1-.74,1.69l-2.45,3h3.19v1Z"/><path class="cls-10" d="M33.86,149.65a2.16,2.16,0,0,1-2.26-2.25v-3.48a2.26,2.26,0,0,1,4.52,0v3.48A2.16,2.16,0,0,1,33.86,149.65ZM35,144a1.15,1.15,0,1,0-2.28,0v3.41a1.15,1.15,0,1,0,2.28,0Z"/><path class="cls-10" d="M43.87,189.67a2.16,2.16,0,0,1-2.26-2.25V184a2.26,2.26,0,0,1,4.52,0v3.48A2.16,2.16,0,0,1,43.87,189.67ZM45,184a1.15,1.15,0,1,0-2.28,0v3.41a1.15,1.15,0,1,0,2.28,0Z"/><path class="cls-10" d="M100.41,189.61V183l-1.53,1.34V183.1l1.53-1.32h1.12v7.83Z"/><path class="cls-10" d="M155,189.61v-1l3-3.66a1.51,1.51,0,0,0,.42-1,1.15,1.15,0,1,0-2.3,0H155a2.14,2.14,0,0,1,2.28-2.21,2.1,2.1,0,0,1,2.27,2.2,2.44,2.44,0,0,1-.74,1.69l-2.45,3h3.19v1Z"/><path class="cls-10" d="M213.84,189.69a2.18,2.18,0,0,1-2.4-2.2h1.12a1.18,1.18,0,0,0,1.28,1.19,1.21,1.21,0,0,0,1.28-1.3,1.17,1.17,0,0,0-1.31-1.29h-.19v-1h.19a1.07,1.07,0,0,0,1.19-1.19,1.17,1.17,0,1,0-2.33-.09h-1.12a2.17,2.17,0,0,1,2.3-2.13,2.14,2.14,0,0,1,2.28,2.19,1.72,1.72,0,0,1-1,1.67,1.84,1.84,0,0,1,1.1,1.85A2.2,2.2,0,0,1,213.84,189.69Z"/><path class="cls-10" d="M272.3,188.43v1.18h-1.09v-1.18H268v-1l2.76-5.61H272l-2.75,5.61h1.95v-1.83h1.09v1.83h.84v1Z"/><path class="cls-10" d="M29.71,118.91v1.18H28.62v-1.18H25.45v-1l2.76-5.61h1.21l-2.75,5.61h1.95V116h1.09v1.83h.84v1Z"/><path class="cls-10" d="M33.86,120.15a2.16,2.16,0,0,1-2.26-2.25v-3.48a2.26,2.26,0,0,1,4.52,0v3.48A2.16,2.16,0,0,1,33.86,120.15ZM35,114.47a1.15,1.15,0,1,0-2.28,0v3.41a1.15,1.15,0,1,0,2.28,0Z"/><path class="cls-10" d="M28.23,92.12a2.2,2.2,0,0,1-2.32-2.34,4.34,4.34,0,0,1,.58-1.92l1.78-3.63h1.2l-1.68,3.37a1.8,1.8,0,0,1,.69-.12,2.1,2.1,0,0,1,2.06,2.27A2.23,2.23,0,0,1,28.23,92.12Zm0-3.72A1.19,1.19,0,0,0,27,89.76a1.2,1.2,0,1,0,1.19-1.35Z"/><path class="cls-10" d="M33.86,92.12a2.16,2.16,0,0,1-2.26-2.25V86.4a2.26,2.26,0,0,1,4.52,0v3.48A2.16,2.16,0,0,1,33.86,92.12ZM35,86.43a1.15,1.15,0,1,0-2.28,0v3.41a1.15,1.15,0,1,0,2.28,0Z"/><path class="cls-10" d="M28,64a2.24,2.24,0,0,1-2.41-2.28,2.07,2.07,0,0,1,1.08-1.84,1.91,1.91,0,0,1-.95-1.68,2.29,2.29,0,0,1,4.57,0,1.91,1.91,0,0,1-.95,1.68,2.07,2.07,0,0,1,1.08,1.84A2.25,2.25,0,0,1,28,64Zm0-3.61a1.3,1.3,0,1,0,1.29,1.31A1.29,1.29,0,0,0,28,60.36ZM28,57a1.14,1.14,0,0,0-1.15,1.2,1.16,1.16,0,1,0,2.32,0A1.15,1.15,0,0,0,28,57Z"/><path class="cls-10" d="M33.86,64a2.16,2.16,0,0,1-2.26-2.25V58.25a2.26,2.26,0,0,1,4.52,0v3.48A2.16,2.16,0,0,1,33.86,64ZM35,58.28a1.15,1.15,0,1,0-2.28,0v3.41a1.15,1.15,0,1,0,2.28,0Z"/><path class="cls-10" d="M23.31,35.07V28.46L21.78,29.8V28.56l1.53-1.32h1.12v7.83Z"/><path class="cls-10" d="M28.21,35.14A2.16,2.16,0,0,1,26,32.89V29.42a2.26,2.26,0,0,1,4.52,0v3.48A2.16,2.16,0,0,1,28.21,35.14Zm1.14-5.69a1.15,1.15,0,1,0-2.28,0v3.41a1.15,1.15,0,1,0,2.28,0Z"/><path class="cls-10" d="M33.86,35.14a2.16,2.16,0,0,1-2.26-2.25V29.42a2.26,2.26,0,0,1,4.52,0v3.48A2.16,2.16,0,0,1,33.86,35.14ZM35,29.45a1.15,1.15,0,1,0-2.28,0v3.41a1.15,1.15,0,1,0,2.28,0Z"/><path class="cls-10" d="M23.31,7.9V1.29L21.78,2.63V1.39L23.31.07h1.12V7.9Z"/><path class="cls-10" d="M26,7.9v-1l3-3.66a1.51,1.51,0,0,0,.42-1,1.15,1.15,0,1,0-2.3,0H26A2.14,2.14,0,0,1,28.27,0a2.1,2.1,0,0,1,2.27,2.2,2.44,2.44,0,0,1-.74,1.69l-2.45,3h3.19v1Z"/><path class="cls-10" d="M33.85,8A2.16,2.16,0,0,1,31.6,5.72V2.24a2.26,2.26,0,0,1,4.52,0V5.72A2.16,2.16,0,0,1,33.85,8ZM35,2.28a1.15,1.15,0,1,0-2.28,0V5.69a1.15,1.15,0,1,0,2.28,0Z"/><line class="cls-11" x1="100.55" y1="204.73" x2="150.43" y2="204.73"/><polygon class="cls-10" points="146.78 209.24 146.03 208.43 150 204.74 146.03 201.04 146.78 200.23 151.62 204.74 146.78 209.24"/><path class="cls-10" d="M158.56,208.65A1.45,1.45,0,0,1,157,207.1v-3.17h-.64v-.86H157v-1.59h1.12v1.59h1.08v.86h-1.08V207a.57.57,0,0,0,.62.65h.46v1Z"/><path class="cls-10" d="M163.73,204.38a1,1,0,0,0-.84-.37,1.15,1.15,0,0,0-1.11,1.25v3.39h-1.12v-5.58h1.1v.61a1.85,1.85,0,0,1,1.49-.67,1.73,1.73,0,0,1,1.33.53Z"/><path class="cls-10" d="M168.38,208.65v-.51a1.83,1.83,0,0,1-1.49.57,2,2,0,0,1-1.5-.51A1.71,1.71,0,0,1,165,207c0-.93.65-1.61,1.94-1.61h1.46V205c0-.71-.34-1-1.22-1a1.35,1.35,0,0,0-1.22.55l-.73-.69a2.25,2.25,0,0,1,2-.81c1.54,0,2.3.66,2.3,1.91v3.73Zm0-2.46h-1.29c-.68,0-1,.29-1,.8s.32.79,1.06.79a1.34,1.34,0,0,0,1-.32,1.08,1.08,0,0,0,.24-.83Z"/><path class="cls-10" d="M173.37,208.65h-.91l-2-5.58h1.19l1.32,3.93,1.31-3.93h1.19Z"/><path class="cls-10" d="M177.11,206.19c0,1,.5,1.56,1.42,1.56a1.67,1.67,0,0,0,1.35-.57l.71.67a2.62,2.62,0,0,1-2.09.87c-1.4,0-2.51-.74-2.51-2.86,0-1.82.93-2.85,2.37-2.85s2.37,1.08,2.37,2.71v.47Zm2.35-1.54a1.22,1.22,0,0,0-2.21,0,1.73,1.73,0,0,0-.14.76h2.51A1.9,1.9,0,0,0,179.46,204.65Z"/><path class="cls-10" d="M183.71,208.65a1.42,1.42,0,0,1-1.53-1.54v-6.29h1.12V207c0,.43.15.65.61.65h.5v1Z"/><path class="cls-10" d="M189.47,209.69a5.1,5.1,0,0,1-.89-1,2.45,2.45,0,0,1-.25-1.28v-5.26a2.56,2.56,0,0,1,.25-1.28,4.84,4.84,0,0,1,.89-1l.77.77a3,3,0,0,0-.62.73,1.93,1.93,0,0,0-.17.89v5.13a1.93,1.93,0,0,0,.17.89,2.93,2.93,0,0,0,.62.73Z"/><path class="cls-10" d="M198.56,208.65v-3.4a1.08,1.08,0,0,0-1.12-1.24,1.1,1.1,0,0,0-1.16,1.19v3.45h-1.12v-3.4A1.08,1.08,0,0,0,194,204a1.11,1.11,0,0,0-1.16,1.24v3.4h-1.12v-5.58h1.1v.56a2,2,0,0,1,1.49-.63,1.78,1.78,0,0,1,1.58.81,2.12,2.12,0,0,1,1.75-.81,2,2,0,0,1,1.41.51,2.07,2.07,0,0,1,.59,1.57v3.56Z"/><path class="cls-10" d="M208.2,208.65v-3.4a1.08,1.08,0,0,0-1.12-1.24,1.1,1.1,0,0,0-1.16,1.19v3.45h-1.12v-3.4a1.08,1.08,0,0,0-1.12-1.24,1.11,1.11,0,0,0-1.16,1.24v3.4h-1.12v-5.58h1.1v.56A2,2,0,0,1,204,203a1.78,1.78,0,0,1,1.58.81,2.12,2.12,0,0,1,1.75-.81,2,2,0,0,1,1.41.51,2.07,2.07,0,0,1,.59,1.57v3.56Z"/><path class="cls-10" d="M212.45,208.64a4.93,4.93,0,0,1-.88,1l-.77-.77a2.86,2.86,0,0,0,.61-.73,1.79,1.79,0,0,0,.17-.89v-5.13a1.79,1.79,0,0,0-.17-.89,2.89,2.89,0,0,0-.61-.73l.77-.77a4.71,4.71,0,0,1,.88,1,2.45,2.45,0,0,1,.26,1.28v5.26A2.45,2.45,0,0,1,212.45,208.64Z"/><rect class="cls-12" x="81.41" y="51.96" width="94.96" height="16.16"/><path class="cls-13" d="M91.16,62.39a3,3,0,0,1-4,0c-.77-.77-.79-1.55-.79-3.19s0-2.42.79-3.19a3,3,0,0,1,4,0c.77.77.79,1.55.79,3.19S91.93,61.62,91.16,62.39Zm-.86-5.63a1.65,1.65,0,0,0-2.33,0c-.38.42-.46.89-.46,2.44s.08,2,.46,2.43a1.62,1.62,0,0,0,2.33,0c.4-.41.46-.88.46-2.43S90.7,57.16,90.3,56.75Z"/><path class="cls-13" d="M97.3,62.68a1.88,1.88,0,0,1-1.35.5,1.71,1.71,0,0,1-1.46-.64v2.83H93.36V57.53h1.1v.59a1.73,1.73,0,0,1,1.47-.66,1.91,1.91,0,0,1,1.36.5,3.32,3.32,0,0,1,.63,2.35A3.35,3.35,0,0,1,97.3,62.68Zm-1.65-4.21c-1,0-1.17.86-1.17,1.85s.14,1.86,1.17,1.86,1.15-.87,1.15-1.86S96.66,58.47,95.65,58.47Z"/><path class="cls-13" d="M100,60.65c0,1,.5,1.56,1.42,1.56a1.66,1.66,0,0,0,1.35-.57l.71.67a2.62,2.62,0,0,1-2.09.87c-1.4,0-2.51-.74-2.51-2.86,0-1.81.94-2.85,2.37-2.85s2.37,1.08,2.37,2.71v.47Zm2.35-1.54a1.22,1.22,0,0,0-2.21,0,1.72,1.72,0,0,0-.14.76h2.51A1.9,1.9,0,0,0,102.4,59.11Z"/><path class="cls-13" d="M108,58.84a1,1,0,0,0-.84-.37,1.15,1.15,0,0,0-1.11,1.25v3.39h-1.12V57.53H106v.61a1.85,1.85,0,0,1,1.49-.67,1.73,1.73,0,0,1,1.33.53Z"/><path class="cls-13" d="M112.43,63.11v-.51a1.84,1.84,0,0,1-1.49.57,2,2,0,0,1-1.5-.51,1.71,1.71,0,0,1-.44-1.2c0-.93.65-1.61,1.94-1.61h1.46v-.4c0-.71-.34-1-1.22-1A1.35,1.35,0,0,0,110,59l-.73-.69a2.25,2.25,0,0,1,2-.81c1.54,0,2.3.66,2.3,1.91v3.73Zm0-2.46h-1.29c-.68,0-1,.29-1,.8s.32.79,1.06.79a1.34,1.34,0,0,0,1-.32,1.07,1.07,0,0,0,.24-.82Z"/><path class="cls-13" d="M116.7,63.11a1.45,1.45,0,0,1-1.53-1.55V58.39h-.64v-.86h.64v-1.6h1.12v1.6h1.08v.86h-1.08V61.5a.57.57,0,0,0,.62.65h.46v1Z"/><path class="cls-13" d="M118.55,56.43V55.24h1.19v1.19Zm0,6.68V57.53h1.12v5.58Z"/><path class="cls-13" d="M124.66,63.11v-3.4a1.08,1.08,0,0,0-1.12-1.24,1.11,1.11,0,0,0-1.16,1.24v3.4h-1.12V57.53h1.1v.56a2,2,0,0,1,1.49-.63,1.94,1.94,0,0,1,1.38.51,2,2,0,0,1,.56,1.57v3.56Z"/><path class="cls-13" d="M129.16,65.43a2.58,2.58,0,0,1-2-.74l.72-.71a1.57,1.57,0,0,0,1.21.49,1.26,1.26,0,0,0,1.31-1.42v-.72A1.72,1.72,0,0,1,129,63a1.85,1.85,0,0,1-1.33-.49,3,3,0,0,1-.63-2.27,3,3,0,0,1,.63-2.27,1.86,1.86,0,0,1,1.34-.48,1.71,1.71,0,0,1,1.46.66v-.59h1.09v5.54A2.24,2.24,0,0,1,129.16,65.43Zm.13-7c-1,0-1.14.87-1.14,1.75s.13,1.75,1.14,1.75,1.13-.87,1.13-1.75S130.31,58.47,129.29,58.47Z"/><path class="cls-13" d="M139.47,62.68a1.88,1.88,0,0,1-1.35.5,1.71,1.71,0,0,1-1.46-.64v2.83h-1.12V57.53h1.1v.59a1.73,1.73,0,0,1,1.47-.66,1.91,1.91,0,0,1,1.36.5,3.32,3.32,0,0,1,.63,2.35A3.35,3.35,0,0,1,139.47,62.68Zm-1.65-4.21c-1,0-1.17.86-1.17,1.85s.14,1.86,1.17,1.86,1.16-.87,1.16-1.86S138.83,58.47,137.82,58.47Z"/><path class="cls-13" d="M145.12,62.52a2.26,2.26,0,0,1-1.67.66,2.24,2.24,0,0,1-1.66-.66,3,3,0,0,1-.66-2.2,2.93,2.93,0,0,1,.66-2.19,2.24,2.24,0,0,1,1.66-.66,2.26,2.26,0,0,1,1.67.66,2.92,2.92,0,0,1,.66,2.19A2.94,2.94,0,0,1,145.12,62.52Zm-.85-3.73a1.13,1.13,0,0,0-.82-.32,1.11,1.11,0,0,0-.81.32,3.23,3.23,0,0,0,0,3.06,1.12,1.12,0,0,0,.81.33,1.14,1.14,0,0,0,.82-.33,3.22,3.22,0,0,0,0-3.06Z"/><path class="cls-13" d="M148.89,63.18a3.07,3.07,0,0,1-2.34-.8l.74-.74a2.16,2.16,0,0,0,1.61.58c.69,0,1.22-.24,1.22-.77s-.21-.61-.75-.66l-.89-.08c-1.06-.1-1.65-.56-1.65-1.54s.94-1.71,2.1-1.71a3,3,0,0,1,2.07.63l-.71.71a2.1,2.1,0,0,0-1.37-.41c-.68,0-1,.29-1,.71s.22.58.77.64l.78.07c1.16.1,1.76.6,1.76,1.58C151.21,62.57,150.22,63.18,148.89,63.18Z"/><path class="cls-13" d="M152.32,56.43V55.24h1.19v1.19Zm0,6.68V57.53h1.12v5.58Z"/><path class="cls-13" d="M156.69,63.11a1.45,1.45,0,0,1-1.53-1.55V58.39h-.64v-.86h.64v-1.6h1.12v1.6h1.08v.86h-1.08V61.5a.57.57,0,0,0,.62.65h.46v1Z"/><path class="cls-13" d="M158.54,56.43V55.24h1.19v1.19Zm0,6.68V57.53h1.12v5.58Z"/><path class="cls-13" d="M165,62.52a2.26,2.26,0,0,1-1.67.66,2.24,2.24,0,0,1-1.66-.66,3,3,0,0,1-.66-2.2,2.93,2.93,0,0,1,.66-2.19,2.24,2.24,0,0,1,1.66-.66,2.26,2.26,0,0,1,1.67.66,2.93,2.93,0,0,1,.66,2.19A3,3,0,0,1,165,62.52Zm-.85-3.73a1.13,1.13,0,0,0-.82-.32,1.11,1.11,0,0,0-.81.32,3.23,3.23,0,0,0,0,3.06,1.12,1.12,0,0,0,.81.33,1.14,1.14,0,0,0,.82-.33,3.23,3.23,0,0,0,0-3.06Z"/><path class="cls-13" d="M170.34,63.11v-3.4a1.08,1.08,0,0,0-1.12-1.24,1.11,1.11,0,0,0-1.16,1.24v3.4h-1.12V57.53H168v.56a2,2,0,0,1,1.49-.63,1.94,1.94,0,0,1,1.37.51,2.06,2.06,0,0,1,.56,1.57v3.56Z"/><rect class="cls-12" x="148.01" y="123.55" width="75.12" height="16.16"/><path class="cls-13" d="M157.34,134.72l-1.65-3.3H154.2v3.3H153v-7.83h3a2.24,2.24,0,0,1,2.43,2.29,2.06,2.06,0,0,1-1.56,2.08l1.8,3.47ZM156,128H154.2v2.45H156a1.23,1.23,0,1,0,0-2.45Z"/><path class="cls-13" d="M160.36,132.25c0,1,.5,1.56,1.42,1.56a1.67,1.67,0,0,0,1.35-.57l.71.67a2.62,2.62,0,0,1-2.09.87c-1.4,0-2.51-.74-2.51-2.86,0-1.81.93-2.85,2.37-2.85s2.37,1.08,2.37,2.71v.47Zm2.35-1.54a1.22,1.22,0,0,0-2.21,0,1.72,1.72,0,0,0-.14.76h2.51A1.9,1.9,0,0,0,162.72,130.71Z"/><path class="cls-13" d="M167.05,134.78a3.06,3.06,0,0,1-2.34-.8l.74-.74a2.16,2.16,0,0,0,1.61.58c.69,0,1.22-.24,1.22-.77s-.21-.61-.75-.66l-.89-.08c-1.06-.1-1.65-.56-1.65-1.54s.94-1.71,2.1-1.71a3,3,0,0,1,2.07.63l-.7.71a2.11,2.11,0,0,0-1.37-.41c-.68,0-1,.29-1,.71s.22.58.77.64l.78.07c1.16.1,1.76.6,1.76,1.58C169.37,134.18,168.38,134.78,167.05,134.78Z"/><path class="cls-13" d="M171.34,132.25c0,1,.5,1.56,1.42,1.56a1.67,1.67,0,0,0,1.35-.57l.71.67a2.62,2.62,0,0,1-2.09.87c-1.4,0-2.51-.74-2.51-2.86,0-1.81.93-2.85,2.37-2.85s2.37,1.08,2.37,2.71v.47Zm2.35-1.54a1.22,1.22,0,0,0-2.21,0,1.73,1.73,0,0,0-.14.76h2.51A1.9,1.9,0,0,0,173.7,130.71Z"/><path class="cls-13" d="M177.89,134.72a1.45,1.45,0,0,1-1.53-1.55V130h-.64v-.86h.64v-1.6h1.12v1.6h1.08V130h-1.08v3.11a.57.57,0,0,0,.62.65h.46v1Z"/><path class="cls-13" d="M186.13,134.29a1.88,1.88,0,0,1-1.35.5,1.71,1.71,0,0,1-1.46-.64V137h-1.12v-7.83h1.1v.59a1.73,1.73,0,0,1,1.47-.66,1.91,1.91,0,0,1,1.36.5,3.32,3.32,0,0,1,.63,2.35A3.35,3.35,0,0,1,186.13,134.29Zm-1.65-4.21c-1,0-1.17.86-1.17,1.85s.14,1.86,1.17,1.86,1.16-.87,1.16-1.86S185.49,130.07,184.48,130.07Z"/><path class="cls-13" d="M191.78,134.12a2.26,2.26,0,0,1-1.67.66,2.24,2.24,0,0,1-1.66-.66,4,4,0,0,1,0-4.39,2.24,2.24,0,0,1,1.66-.66,2.26,2.26,0,0,1,1.67.66,4,4,0,0,1,0,4.39Zm-.85-3.73a1.14,1.14,0,0,0-.83-.32,1.11,1.11,0,0,0-.81.32,3.23,3.23,0,0,0,0,3.06,1.12,1.12,0,0,0,.81.33,1.15,1.15,0,0,0,.83-.33,3.23,3.23,0,0,0,0-3.06Z"/><path class="cls-13" d="M195.54,134.78a3.06,3.06,0,0,1-2.34-.8l.74-.74a2.16,2.16,0,0,0,1.61.58c.69,0,1.22-.24,1.22-.77s-.21-.61-.75-.66l-.89-.08c-1.06-.1-1.65-.56-1.65-1.54s.94-1.71,2.1-1.71a3,3,0,0,1,2.07.63l-.7.71a2.11,2.11,0,0,0-1.37-.41c-.68,0-1,.29-1,.71s.22.58.77.64l.78.07c1.16.1,1.76.6,1.76,1.58C197.86,134.18,196.87,134.78,195.54,134.78Z"/><path class="cls-13" d="M199,128v-1.19h1.19V128Zm0,6.68v-5.58h1.12v5.58Z"/><path class="cls-13" d="M203.35,134.72a1.45,1.45,0,0,1-1.53-1.55V130h-.64v-.86h.64v-1.6h1.12v1.6H204V130h-1.08v3.11a.57.57,0,0,0,.62.65H204v1Z"/><path class="cls-13" d="M205.2,128v-1.19h1.19V128Zm0,6.68v-5.58h1.12v5.58Z"/><path class="cls-13" d="M211.64,134.12a2.26,2.26,0,0,1-1.67.66,2.24,2.24,0,0,1-1.66-.66,4,4,0,0,1,0-4.39,2.24,2.24,0,0,1,1.66-.66,2.26,2.26,0,0,1,1.67.66,4,4,0,0,1,0,4.39Zm-.85-3.73a1.14,1.14,0,0,0-.83-.32,1.11,1.11,0,0,0-.81.32,3.22,3.22,0,0,0,0,3.06,1.12,1.12,0,0,0,.81.33,1.15,1.15,0,0,0,.83-.33,3.22,3.22,0,0,0,0-3.06Z"/><path class="cls-13" d="M217,134.72v-3.4a1.08,1.08,0,0,0-1.12-1.24,1.11,1.11,0,0,0-1.16,1.24v3.4H213.6v-5.58h1.1v.56a2,2,0,0,1,1.49-.63,1.94,1.94,0,0,1,1.37.51,2.05,2.05,0,0,1,.56,1.57v3.56Z"/><g id="LINE-28" data-name="LINE"><line class="cls-14" x1="158.35" y1="92.22" x2="151.92" y2="100.77"/></g><g id="ARC-3" data-name="ARC"><path class="cls-14" d="M162.61,89.22a8.5,8.5,0,0,0-4.26,3"/></g><g id="LINE-29" data-name="LINE"><line class="cls-14" x1="162.61" y1="89.22" x2="264.62" y2="57.34"/></g><g id="ARC-4" data-name="ARC"><path class="cls-14" d="M264.62,57.34c3.53-1,6-4.48,6-10.64"/></g><g id="LINE-30" data-name="LINE"><line class="cls-14" x1="151.92" y1="100.77" x2="49.84" y2="132.67"/></g><g id="ARC-5" data-name="ARC"><path class="cls-14" d="M49.84,132.67a8.5,8.5,0,0,0-6,8.11"/></g><g id="CIRCLE-3" data-name="CIRCLE"><path class="cls-15" d="M154,100.77a2.13,2.13,0,1,0-2.13,2.13,2.13,2.13,0,0,0,2.13-2.13Z"/></g><g id="LINE-31" data-name="LINE"><line class="cls-9" x1="185.57" y1="123.55" x2="151.92" y2="100.77"/></g><line class="cls-16" x1="5.73" y1="139.44" x2="5.73" y2="89.12"/><polygon class="cls-10" points="10.25 92.78 9.44 93.54 5.73 89.54 2.02 93.54 1.21 92.78 5.73 87.92 10.25 92.78"/><path class="cls-10" d="M4.15,82.33H8.87v1.12H4.15v.64H3.29v-.64H2.53A1.45,1.45,0,0,1,1,81.93v-.7h1v.5a.57.57,0,0,0,.65.62h.71V81.22h.86Z"/><path class="cls-10" d="M8.27,76.46a2.26,2.26,0,0,1,.66,1.67,2.24,2.24,0,0,1-.66,1.66,3,3,0,0,1-2.2.66,2.93,2.93,0,0,1-2.19-.66,2.24,2.24,0,0,1-.66-1.66,2.26,2.26,0,0,1,.66-1.67,2.93,2.93,0,0,1,2.19-.66A2.94,2.94,0,0,1,8.27,76.46Zm-3.73.85a1.14,1.14,0,0,0-.32.83,1.11,1.11,0,0,0,.32.81,2.16,2.16,0,0,0,1.53.39,2.16,2.16,0,0,0,1.53-.39,1.12,1.12,0,0,0,.33-.81,1.15,1.15,0,0,0-.33-.83,2.16,2.16,0,0,0-1.53-.39A2.16,2.16,0,0,0,4.54,77.31Z"/><path class="cls-10" d="M4.6,71.21a1,1,0,0,0-.37.84,1.15,1.15,0,0,0,1.25,1.11H8.87v1.12H3.29v-1.1H3.9a1.85,1.85,0,0,1-.67-1.49,1.73,1.73,0,0,1,.53-1.33Z"/><path class="cls-10" d="M8.93,67.58c0,1.25-.77,2.49-2.86,2.49s-2.85-1.23-2.85-2.49A2.29,2.29,0,0,1,4,65.75l.75.77a1.3,1.3,0,0,0-.53,1.07,1.26,1.26,0,0,0,.49,1,2.07,2.07,0,0,0,1.35.33,2.1,2.1,0,0,0,1.36-.33,1.26,1.26,0,0,0,.5-1,1.3,1.3,0,0,0-.53-1.07l.74-.77A2.3,2.3,0,0,1,8.93,67.58Z"/><path class="cls-10" d="M6.4,63.79c1,0,1.56-.5,1.56-1.42A1.66,1.66,0,0,0,7.39,61l.67-.71a2.62,2.62,0,0,1,.87,2.09c0,1.4-.74,2.51-2.86,2.51-1.81,0-2.85-.94-2.85-2.37s1.08-2.37,2.71-2.37H6.4ZM4.86,61.44a1.22,1.22,0,0,0,0,2.21,1.72,1.72,0,0,0,.76.14V61.28A1.9,1.9,0,0,0,4.86,61.44Z"/><path class="cls-10" d="M9.9,54.85a5.07,5.07,0,0,1-1,.89A2.44,2.44,0,0,1,7.58,56H2.32A2.56,2.56,0,0,1,1,55.74a4.84,4.84,0,0,1-1-.89l.77-.77a3,3,0,0,0,.73.62,1.92,1.92,0,0,0,.89.16H7.51a1.92,1.92,0,0,0,.89-.16,2.92,2.92,0,0,0,.73-.62Z"/><path class="cls-10" d="M8.93,50.36c0,1.25-.77,2.49-2.86,2.49s-2.85-1.23-2.85-2.49A2.29,2.29,0,0,1,4,48.52l.75.77a1.3,1.3,0,0,0-.53,1.07,1.26,1.26,0,0,0,.49,1,2.07,2.07,0,0,0,1.35.33,2.1,2.1,0,0,0,1.36-.33,1.26,1.26,0,0,0,.5-1,1.3,1.3,0,0,0-.53-1.07l.74-.77A2.3,2.3,0,0,1,8.93,50.36Z"/><path class="cls-10" d="M8.87,42.28,3.36,45.9H8.87v1.19H1V46l5.5-3.62H1V41.19H8.87Z"/><path class="cls-10" d="M8.86,37.89a4.93,4.93,0,0,1,1,.88l-.77.77a2.87,2.87,0,0,0-.73-.6,1.78,1.78,0,0,0-.89-.16H2.39a1.78,1.78,0,0,0-.89.16,2.89,2.89,0,0,0-.73.6L0,38.77a4.68,4.68,0,0,1,1-.88,2.45,2.45,0,0,1,1.28-.26H7.58A2.44,2.44,0,0,1,8.86,37.89Z"/></g></g></svg>